<svg width="16" height="16" viewBox="0 0 16 16" fill="none" xmlns="http://www.w3.org/2000/svg">
<path d="M9.00563 0.07C8.67542 0.03 8.34522 0 8.005 0C5.78361 0 3.77236 0.9 2.32145 2.36L5.00313 7L9.00563 0.07ZM15.3896 4.9C14.439 2.63 12.4678 0.91 10.0463 0.27L7.37461 4.9H15.3896ZM0.620388 11.1C1.57098 13.37 3.54221 15.09 5.96373 15.73L8.6354 11.1H0.620388ZM1.63102 3.17C0.610381 4.51 0 6.18 0 8C0 8.73 0.110069 9.43 0.290181 10.1H5.64353L1.63102 3.17ZM15.7198 5.9H10.3665L14.369 12.83C15.3896 11.49 16 9.82 16 8C16 7.27 15.8899 6.57 15.7098 5.9H15.7198ZM7.00438 15.93C7.33458 15.97 7.66479 16 8.005 16C10.2264 16 12.2376 15.1 13.6886 13.64L11.0069 9L7.00438 15.93Z" fill="#2C2F32" fill-opacity="0.25"/>
</svg>
